<?xml version="1.0" encoding="iso-8859-1"?>
<!-- Generator: Adobe Illustrator 19.0.0, SVG Export Plug-In . SVG Version: 6.00 Build 0)  -->
<svg version="1.1" id="Capa_1" xmlns="http://www.w3.org/2000/svg" xmlns:xlink="http://www.w3.org/1999/xlink" x="0px" y="0px"
	 viewBox="0 0 512 512" style="enable-background:new 0 0 512 512;" xml:space="preserve">
<g>
	<path style="fill:#BA7052;" d="M488.559,438.021H23.441c-8.747,0-15.838-7.091-15.838-15.838v-18.005
		c0-8.747,7.091-15.838,15.838-15.838H488.56c8.747,0,15.838,7.091,15.838,15.838v18.005
		C504.396,430.931,497.305,438.021,488.559,438.021z"/>
	<path style="fill:#BA7052;" d="M98.345,438.021v50.727c0,8.381-6.794,15.174-15.174,15.174H70.937
		c-8.381,0-15.174-6.794-15.174-15.174v-50.727"/>
	<path style="fill:#BA7052;" d="M456.238,438.021v50.727c0,8.381-6.794,15.174-15.174,15.174H428.83
		c-8.381,0-15.174-6.794-15.174-15.174v-50.727"/>
</g>
<path style="fill:#EF6E4B;" d="M53.859,153.812h34.555c12.071,0,21.857,9.786,21.857,21.858v190.816
	c0,12.071-9.786,21.858-21.857,21.858H53.859c-12.071,0-21.857-9.786-21.857-21.858V175.669
	C32.002,163.598,41.787,153.812,53.859,153.812z"/>
<path style="fill:#DB5B3E;" d="M53.009,366.485V175.669c0-12.071,9.786-21.858,21.858-21.858H53.859
	c-12.071,0-21.858,9.786-21.858,21.858v190.816c0,12.071,9.786,21.857,21.858,21.857h21.007
	C62.795,388.342,53.009,378.556,53.009,366.485z"/>
<path style="fill:#46BEE8;" d="M161.025,8.079h34.555c12.071,0,21.857,9.786,21.857,21.857v336.096
	c0,12.071-9.786,21.858-21.857,21.858h-34.555c-12.071,0-21.858-9.786-21.858-21.858V29.936
	C139.167,17.865,148.952,8.079,161.025,8.079z"/>
<path style="fill:#35B2D3;" d="M157.777,366.033V29.936c0-12.071,9.786-21.858,21.857-21.858h-18.61
	c-12.071,0-21.857,9.786-21.857,21.858v336.096c0,12.071,9.786,21.857,21.857,21.857h18.61
	C167.563,387.89,157.777,378.104,157.777,366.033z"/>
<path style="fill:#EFD873;" d="M327.455,59.756l33.413,8.809c11.673,3.077,18.64,15.035,15.563,26.707l-72.972,276.779
	c-3.077,11.673-15.035,18.64-26.707,15.563l-33.413-8.809c-11.673-3.077-18.64-15.035-15.563-26.707l72.973-276.779
	C303.825,63.647,315.782,56.678,327.455,59.756z"/>
<path style="fill:#E0C865;" d="M245.77,356.842l72.973-276.778c3.077-11.673,15.035-18.641,26.707-15.563l-17.995-4.745
	c-11.673-3.077-23.63,3.89-26.707,15.563l-72.973,276.778c-3.077,11.673,3.89,23.63,15.563,26.707l17.995,4.745
	C249.66,380.472,242.692,368.515,245.77,356.842z"/>
<path style="fill:#D388BD;" d="M386.103,135.325h72.673c12.071,0,21.858,9.786,21.858,21.857v209.304
	c0,12.071-9.786,21.858-21.858,21.858h-72.673c-12.071,0-21.858-9.786-21.858-21.858V157.181
	C364.245,145.11,374.031,135.325,386.103,135.325z"/>
<path style="fill:#C476B2;" d="M382.855,366.485V157.181c0-12.071,9.786-21.858,21.857-21.858h-18.61
	c-12.071,0-21.857,9.786-21.857,21.858v209.303c0,12.071,9.786,21.857,21.857,21.857h18.61
	C392.641,388.342,382.855,378.556,382.855,366.485z"/>
<path d="M488.559,380.738h-4.011c2.347-4.227,3.688-9.085,3.688-14.253V157.181c0-16.244-13.216-29.461-29.462-29.461h-72.673
	c-3.857,0-7.54,0.752-10.919,2.107l8.599-32.616c4.142-15.708-5.268-31.857-20.976-35.998l-33.414-8.808
	c-7.613-2.007-15.545-0.93-22.343,3.032S295.4,65.772,293.393,73.382l-68.355,259.264V29.936c0-16.245-13.216-29.462-29.462-29.462
	h-34.554c-16.245,0-29.462,13.217-29.462,29.462v336.096c0,5.354,1.443,10.374,3.949,14.705h-21.326
	c2.347-4.227,3.688-9.085,3.688-14.253V238.287c0-4.199-3.404-7.604-7.604-7.604s-7.604,3.405-7.604,7.604v128.198
	c0,7.858-6.394,14.253-14.254,14.253H53.859c-7.859,0-14.254-6.394-14.254-14.253V175.67c0-7.859,6.394-14.254,14.254-14.254h34.554
	c7.859,0,14.254,6.394,14.254,14.254v37.27c0,4.199,3.404,7.604,7.604,7.604s7.604-3.405,7.604-7.604v-37.27
	c0-16.245-13.216-29.462-29.462-29.462H53.859c-16.245,0-29.462,13.217-29.462,29.462v190.816c0,5.168,1.341,10.026,3.688,14.253
	H23.44C10.516,380.738,0,391.254,0,404.179v18.004c0,12.926,10.516,23.441,23.441,23.441h124.077c4.2,0,7.604-3.405,7.604-7.604
	c0-4.199-3.404-7.604-7.604-7.604H23.441c-4.54,0-8.234-3.694-8.234-8.234v-18.004c0-4.54,3.695-8.234,8.234-8.234h30.418h34.554
	h297.689h72.673h29.783c4.54,0,8.234,3.694,8.234,8.234v18.004c0,4.54-3.695,8.234-8.234,8.234H172.866
	c-4.2,0-7.604,3.405-7.604,7.604c0,4.199,3.404,7.604,7.604,7.604h315.692c12.926,0,23.441-10.516,23.441-23.441v-18.004
	C512,391.254,501.484,380.738,488.559,380.738z M386.103,142.929h72.673c7.859,0,14.254,6.394,14.254,14.253v9.226H371.85v-9.226
	C371.85,149.323,378.243,142.929,386.103,142.929z M356.642,366.485c0,5.168,1.341,10.026,3.688,14.253h-52.231
	c1.154-2.086,2.077-4.34,2.712-6.747l45.831-173.833V366.485z M235.128,354.037L308.1,77.258c0.97-3.681,3.316-6.764,6.606-8.682
	c2.208-1.287,4.664-1.945,7.153-1.945c1.22,0,2.447,0.158,3.657,0.477l33.414,8.809c7.599,2.004,12.151,9.817,10.149,17.416
	l-72.973,276.779c-0.97,3.681-3.316,6.764-6.606,8.682s-7.126,2.439-10.81,1.468l-33.414-8.809
	c-3.681-0.971-6.764-3.316-8.682-6.606S234.157,357.718,235.128,354.037z M146.772,29.936c0-7.859,6.394-14.254,14.254-14.254
	h34.554c7.859,0,14.254,6.394,14.254,14.254v336.096c0,7.859-6.394,14.254-14.254,14.254h-34.554
	c-7.859,0-14.254-6.394-14.254-14.254V29.936z M224.076,373.511c1.775,2.788,3.97,5.217,6.497,7.227h-9.481
	C222.388,378.497,223.403,376.073,224.076,373.511z M386.103,380.738c-7.859,0-14.254-6.394-14.254-14.253v-9.226h61.579
	c4.2,0,7.604-3.405,7.604-7.604c0-4.199-3.404-7.604-7.604-7.604h-61.579V181.616h101.179v160.435h-14.252
	c-4.2,0-7.604,3.405-7.604,7.604c0,4.199,3.404,7.604,7.604,7.604h14.252v9.226c0,7.858-6.394,14.253-14.254,14.253L386.103,380.738
	L386.103,380.738z"/>
<path d="M98.345,455.766c-4.2,0-7.604,3.405-7.604,7.604v25.378c0,4.174-3.396,7.571-7.571,7.571H70.937
	c-4.174,0-7.571-3.396-7.571-7.571V463.37c0-4.199-3.404-7.604-7.604-7.604s-7.604,3.405-7.604,7.604v25.378
	c0,12.56,10.218,22.778,22.778,22.778H83.17c12.561,0,22.778-10.219,22.778-22.778V463.37
	C105.949,459.17,102.545,455.766,98.345,455.766z"/>
<path d="M456.238,455.766c-4.2,0-7.604,3.405-7.604,7.604v25.378c0,4.174-3.396,7.571-7.57,7.571H428.83
	c-4.174,0-7.57-3.396-7.57-7.571V463.37c0-4.199-3.404-7.604-7.604-7.604s-7.604,3.405-7.604,7.604v25.378
	c0,12.56,10.218,22.778,22.778,22.778h12.233c12.561,0,22.778-10.219,22.778-22.778V463.37
	C463.842,459.17,460.438,455.766,456.238,455.766z"/>
<path d="M63.533,223.185v95.786c0,4.199,3.404,7.604,7.604,7.604s7.604-3.405,7.604-7.604v-95.786c0-4.199-3.404-7.604-7.604-7.604
	S63.533,218.985,63.533,223.185z"/>
<path d="M165.314,58.021h25.976c4.2,0,7.604-3.405,7.604-7.604s-3.404-7.604-7.604-7.604h-25.976c-4.2,0-7.604,3.405-7.604,7.604
	S161.114,58.021,165.314,58.021z"/>
<path d="M165.314,84.283h25.976c4.2,0,7.604-3.405,7.604-7.604c0-4.199-3.404-7.604-7.604-7.604h-25.976
	c-4.2,0-7.604,3.405-7.604,7.604C157.71,80.878,161.114,84.283,165.314,84.283z"/>
<path d="M165.314,110.545h25.976c4.2,0,7.604-3.405,7.604-7.604c0-4.199-3.404-7.604-7.604-7.604h-25.976
	c-4.2,0-7.604,3.405-7.604,7.604C157.71,107.14,161.114,110.545,165.314,110.545z"/>
<path d="M318.871,109.141l25.117,6.623c0.65,0.171,1.302,0.253,1.944,0.253c3.369,0,6.448-2.257,7.347-5.667
	c1.072-4.061-1.353-8.22-5.414-9.291l-25.117-6.623c-4.061-1.073-8.22,1.354-9.291,5.414
	C312.385,103.911,314.81,108.071,318.871,109.141z"/>
<path d="M312.175,134.536l25.117,6.623c0.65,0.171,1.302,0.253,1.944,0.253c3.369,0,6.448-2.257,7.347-5.667
	c1.072-4.061-1.354-8.22-5.414-9.291l-25.117-6.623c-4.06-1.074-8.22,1.354-9.291,5.414
	C305.69,129.305,308.115,133.465,312.175,134.536z"/>
<path d="M455.389,210.35c0-4.199-3.404-7.604-7.604-7.604h-50.693c-4.2,0-7.604,3.405-7.604,7.604c0,4.199,3.404,7.604,7.604,7.604
	h50.693C451.986,217.954,455.389,214.55,455.389,210.35z"/>
<g>
</g>
<g>
</g>
<g>
</g>
<g>
</g>
<g>
</g>
<g>
</g>
<g>
</g>
<g>
</g>
<g>
</g>
<g>
</g>
<g>
</g>
<g>
</g>
<g>
</g>
<g>
</g>
<g>
</g>
</svg>
