<svg width="62" height="62" viewBox="0 0 62 62" fill="none" xmlns="http://www.w3.org/2000/svg">
<path d="M22.3625 49.8504C21.9314 49.9307 21.7431 50.133 21.7971 50.4557C21.8508 50.7784 22.093 50.8863 22.5235 50.7784C22.9546 50.671 23.1427 50.4823 23.0886 50.2133C23.0352 49.9176 22.793 49.7963 22.3625 49.8504Z" fill="#E9EFFF"/>
<path d="M20.0615 50.1734C19.6309 50.1734 19.4157 50.3206 19.4157 50.6172C19.4157 50.967 19.6446 51.1146 20.1018 51.0609C20.5324 51.0609 20.7479 50.9129 20.7479 50.6172C20.7479 50.2679 20.519 50.1193 20.0615 50.1734Z" fill="#E9EFFF"/>
<path d="M16.9131 50.0516C16.8057 50.3478 16.9807 50.5491 17.4378 50.6573C17.8414 50.818 18.0972 50.7376 18.2046 50.415C18.2855 50.1193 18.1105 49.9046 17.68 49.7691C17.2762 49.6618 17.0207 49.7547 16.9131 50.0516Z" fill="#E9EFFF"/>
<path d="M58.5891 3.4105C56.3151 1.13697 53.5777 0 50.3748 0H11.6249C8.42297 0 5.68459 1.13697 3.4105 3.4105C1.13697 5.68444 0 8.42282 0 11.6249V50.3753C0 53.5776 1.13697 56.3157 3.4105 58.5892C5.68444 60.8631 8.42297 62.0001 11.6249 62.0001H20.6666C21.2581 62.0001 21.7025 61.9798 21.9984 61.9402C22.2941 61.8994 22.5899 61.7244 22.8861 61.4147C23.1824 61.1055 23.33 60.6546 23.33 60.0628C23.33 59.9825 23.323 59.0666 23.3097 57.3176C23.2959 55.5681 23.2893 54.1824 23.2893 53.1597L22.3609 53.3213C21.7689 53.4287 21.0221 53.4761 20.1206 53.4625C19.2194 53.4489 18.284 53.355 17.3155 53.18C16.3463 53.0048 15.4451 52.6013 14.6109 51.9695C13.777 51.3366 13.1851 50.5094 12.8351 49.487L12.4314 48.558C12.1623 47.9398 11.7387 47.2532 11.1601 46.5004C10.5814 45.7466 9.99624 45.2352 9.40428 44.9662L9.12166 44.7643C8.93349 44.6298 8.7586 44.4677 8.597 44.2795C8.43569 44.0907 8.31467 43.9021 8.23394 43.7144C8.15321 43.5256 8.22023 43.3708 8.43569 43.2494C8.65115 43.1285 9.04094 43.0686 9.60631 43.0686L10.4133 43.1894C10.9517 43.2969 11.6173 43.6195 12.4116 44.158C13.2053 44.6961 13.8577 45.3957 14.3691 46.2565C14.9883 47.3601 15.7344 48.2005 16.6094 48.7792C17.4837 49.3584 18.3652 49.6476 19.2531 49.6476C20.1409 49.6476 20.9078 49.5804 21.5539 49.4463C22.1993 49.3115 22.8048 49.1091 23.3702 48.8401C23.6124 47.0374 24.2717 45.6507 25.3478 44.6821C23.8141 44.5205 22.4351 44.2786 21.2103 43.9554C19.9863 43.6322 18.7213 43.1079 17.4164 42.381C16.1109 41.6543 15.0279 40.7535 14.1668 39.6764C13.3058 38.5994 12.5992 37.1867 12.0479 35.4382C11.4964 33.6886 11.2206 31.6701 11.2206 29.383C11.2206 26.1272 12.2839 23.355 14.4097 21.0679C13.4138 18.6192 13.5078 15.8748 14.692 12.8337C15.4724 12.5914 16.6298 12.7732 18.1634 13.3787C19.6974 13.9847 20.8205 14.5028 21.5339 14.9328C22.2473 15.3629 22.8189 15.7265 23.2496 16.0228C25.7527 15.3231 28.3358 14.9734 30.9997 14.9734C33.6634 14.9734 36.247 15.3231 38.7503 16.0228L40.2841 15.0541C41.334 14.408 42.5716 13.816 43.998 13.2781C45.4242 12.74 46.5139 12.5918 47.2677 12.8341C48.4782 15.8752 48.5865 18.6197 47.5899 21.0682C49.7157 23.3556 50.7793 26.1276 50.7793 29.3835C50.7793 31.671 50.5034 33.6962 49.9519 35.4584C49.4008 37.221 48.6881 38.6342 47.8128 39.6971C46.9386 40.7601 45.8485 41.6542 44.5436 42.3813C43.2384 43.1076 41.9736 43.6329 40.749 43.9552C39.5245 44.2783 38.1456 44.5212 36.6118 44.6828C38.0102 45.8933 38.7097 47.8034 38.7097 50.4141V60.0615C38.7097 60.5192 38.7764 60.8889 38.911 61.1715C39.0465 61.454 39.2614 61.6485 39.5573 61.7569C39.8545 61.8644 40.1156 61.9315 40.3449 61.9583C40.5742 61.9853 40.9032 61.9988 41.3338 61.9988H50.3755C53.5775 61.9988 56.316 60.8619 58.5889 58.5879C60.8629 56.314 61.9999 53.5755 61.9999 50.3735V11.6249C61.9996 8.42282 60.8626 5.68402 58.5891 3.4105Z" fill="#E9EFFF"/>
<path d="M12.2707 45.1275C12.0825 45.2616 12.1094 45.4769 12.3516 45.7729C12.621 46.0418 12.8361 46.0824 12.9977 45.8938C13.1858 45.7598 13.159 45.5445 12.9164 45.2479C12.6475 45.0061 12.4323 44.9655 12.2707 45.1275Z" fill="#E9EFFF"/>
<path d="M10.9391 44.1184C10.8585 44.3072 10.9527 44.4687 11.2217 44.6028C11.4368 44.7378 11.6122 44.7112 11.7464 44.5225C11.827 44.3337 11.7328 44.1721 11.4638 44.0371C11.1947 43.9562 11.0198 43.9834 10.9391 44.1184Z" fill="#E9EFFF"/>
<path d="M13.5224 46.7023C13.2799 46.8363 13.2799 47.0792 13.5224 47.4285C13.7646 47.7789 13.9929 47.8727 14.2085 47.711C14.4508 47.5224 14.4508 47.2668 14.2085 46.9437C13.9935 46.5948 13.7646 46.5131 13.5224 46.7023Z" fill="#E9EFFF"/>
<path d="M14.9354 48.5177C14.6931 48.7334 14.7465 48.988 15.0969 49.2851C15.4194 49.6073 15.6885 49.6479 15.9039 49.4051C16.1193 49.1903 16.0655 48.9349 15.7424 48.6388C15.4199 48.3165 15.1507 48.2758 14.9354 48.5177Z" fill="#E9EFFF"/>
</svg>
