<svg width="50" height="36" viewBox="0 0 50 36" fill="none" xmlns="http://www.w3.org/2000/svg">
<path d="M46.8297 0.0263672H3.17031C1.42227 0.0263672 0 1.32914 0 2.93033V32.4032C0 34.0044 1.42227 35.3071 3.17031 35.3071H46.8297C48.5777 35.3071 50 34.0044 50 32.4032V2.93033C50 1.32914 48.5777 0.0263672 46.8297 0.0263672ZM42.7604 1.66986L25 13.5272L7.23955 1.66986H42.7604ZM5.62197 33.6636H3.17031C2.41162 33.6636 1.79424 33.0981 1.79424 32.4032V6.86093L5.62197 9.41648V33.6636ZM42.5837 33.6636H7.41631V10.6145L24.4717 22.0014C24.629 22.1065 24.8145 22.1591 25 22.1591C25.1855 22.1591 25.3711 22.1065 25.5283 22.0014L42.5837 10.6144V33.6636ZM48.2058 32.4032C48.2058 33.0981 47.5884 33.6636 46.8297 33.6636H44.378V9.41648L48.2058 6.86093V32.4032ZM48.2058 4.82724L25 20.3204L1.79424 4.82724V2.93033C1.79424 2.23538 2.41162 1.66986 3.17031 1.66986H4.19336L24.4717 15.2082C24.6291 15.3133 24.8145 15.3659 25 15.3659C25.1855 15.3659 25.3709 15.3133 25.5283 15.2082L45.8065 1.66986H46.8296C47.5883 1.66986 48.2057 2.23538 48.2057 2.93033V4.82724H48.2058Z" fill="#E9EFFF"/>
</svg>
