<?xml version="1.0" standalone="no"?>
<!DOCTYPE svg PUBLIC "-//W3C//DTD SVG 20010904//EN"
 "http://www.w3.org/TR/2001/REC-SVG-20010904/DTD/svg10.dtd">
<svg version="1.0" xmlns="http://www.w3.org/2000/svg"
 width="300.000000pt" height="300.000000pt" viewBox="0 0 300.000000 300.000000"
 preserveAspectRatio="xMidYMid meet">
<metadata>
Created by potrace 1.10, written by Peter Selinger 2001-2011
</metadata>
<g transform="translate(0.000000,300.000000) scale(0.100000,-0.100000)"
fill="#5d9bce" stroke="none">
<path d="M1403 2554 c-145 -63 -349 -133 -505 -173 l-113 -29 0 -704 c0 -795
-3 -755 81 -926 82 -167 246 -308 431 -370 71 -24 92 -26 233 -26 142 0 162 2
235 27 44 14 109 43 145 64 79 46 223 188 267 263 41 69 79 177 92 261 7 40
11 320 11 736 l0 672 -42 11 c-200 52 -424 127 -583 195 -60 26 -114 48 -120
50 -5 1 -65 -21 -132 -51z m199 -3 c59 -27 315 -127 348 -136 8 -2 42 -11 75
-20 33 -9 69 -19 80 -24 11 -5 47 -15 80 -23 l60 -14 5 -99 c7 -129 3 -1201
-4 -1281 -10 -101 -62 -230 -130 -322 -31 -43 -60 -72 -151 -151 -26 -23 -145
-86 -191 -101 -316 -105 -661 7 -843 273 -18 26 -46 76 -62 111 -58 124 -59
136 -59 882 l1 681 37 11 c20 7 89 27 152 46 63 18 183 59 265 91 83 31 168
63 190 72 22 8 44 19 50 24 14 14 30 11 97 -20z"/>
<path d="M1497 2365 c-16 -34 -19 -35 -71 -35 -57 0 -85 -17 -64 -38 8 -8 0
-13 -28 -18 -22 -5 -42 -8 -46 -9 -3 0 -10 -3 -14 -7 -4 -5 -15 -8 -24 -8 -9
0 -29 -11 -44 -25 -22 -21 -25 -29 -16 -40 8 -9 22 -12 41 -8 15 3 40 2 55 -1
l26 -7 -23 -20 c-13 -12 -29 -24 -35 -27 -6 -4 -25 -27 -42 -51 -51 -70 -39
-110 21 -72 57 36 116 65 122 59 4 -3 0 -30 -8 -61 -15 -55 -9 -87 16 -87 7 0
31 25 54 55 24 30 47 55 52 55 5 0 10 -68 10 -159 l1 -159 -36 -29 c-47 -38
-42 -53 32 -88 l57 -27 49 23 c66 31 73 47 38 83 -16 16 -31 44 -35 64 -8 49
-2 292 7 292 11 0 31 -22 82 -94 8 -12 19 -17 30 -13 20 8 21 65 2 112 -14 32
-13 35 2 35 9 0 35 -11 57 -25 80 -48 96 -56 105 -50 34 21 -24 116 -110 178
-25 17 -25 18 37 13 47 -3 66 0 75 11 10 13 7 19 -17 39 -17 13 -34 24 -38 24
-5 0 -33 7 -62 16 -36 10 -52 19 -49 28 8 22 -24 38 -77 38 -38 0 -52 4 -56
17 -9 23 -34 51 -48 51 -6 0 -19 -16 -28 -35z m88 -64 c11 4 43 8 70 8 l50 0
-60 -29 -60 -30 42 6 c49 7 136 -10 199 -37 24 -11 44 -21 44 -23 0 -2 -33 -1
-74 2 -41 2 -92 1 -113 -3 l-38 -7 50 -22 c60 -27 108 -66 146 -120 37 -50 37
-67 2 -35 -41 37 -78 58 -141 80 -69 24 -79 24 -59 1 34 -38 79 -172 57 -172
-6 0 -10 5 -10 11 0 19 -58 95 -95 123 l-36 28 3 -209 c3 -202 4 -208 23 -204
20 3 20 3 1 -18 -19 -21 -19 -21 12 -15 46 9 39 -2 -17 -30 l-50 -24 -58 30
c-57 28 -57 29 -19 24 38 -5 38 -5 20 16 -19 20 -19 21 3 14 l22 -7 3 210 c2
116 0 211 -3 211 -14 0 -108 -103 -119 -130 -7 -17 -16 -30 -21 -30 -12 0 -12
-2 11 73 11 35 30 77 42 92 l22 28 -30 -7 c-53 -14 -127 -49 -171 -83 -24 -18
-43 -30 -43 -25 0 4 16 28 35 55 43 57 104 103 159 118 l41 12 -35 9 c-19 6
-72 8 -117 6 -45 -2 -80 -1 -78 2 11 18 155 55 211 55 54 0 59 1 43 13 -10 7
-36 19 -56 27 l-38 14 47 0 c26 1 58 -3 72 -9 24 -9 26 -7 37 33 17 65 22 66
39 11 13 -45 17 -50 35 -43z"/>
<path d="M1084 1626 c-17 -13 -17 -16 -4 -30 8 -8 42 -19 75 -25 89 -14 280
-101 272 -124 -2 -7 -15 -13 -30 -15 -15 -2 -35 -15 -46 -31 -15 -20 -29 -28
-52 -29 -18 0 -41 -10 -53 -21 l-20 -21 20 -27 c27 -36 62 -40 114 -13 24 12
52 19 63 16 22 -6 57 18 57 39 0 16 40 35 65 31 11 -1 25 -12 30 -23 20 -40
37 -53 61 -49 14 3 44 -4 67 -14 23 -11 51 -20 63 -20 21 0 64 38 64 57 0 19
-37 43 -71 46 -24 2 -37 9 -44 25 -5 13 -21 25 -35 28 -42 9 -50 13 -50 23 0
23 205 114 281 125 54 8 89 29 74 45 -20 20 -136 20 -214 0 -76 -19 -195 -70
-206 -89 -8 -13 -62 -13 -70 1 -13 20 -152 77 -229 93 -97 20 -156 20 -182 2z
m226 -38 c71 -22 175 -71 202 -95 15 -14 20 -13 45 5 49 34 126 69 198 90 80
23 225 37 225 22 0 -6 -18 -10 -41 -10 -58 0 -181 -43 -276 -98 -46 -26 -83
-49 -83 -52 2 -14 71 -48 89 -43 15 4 21 1 21 -12 0 -28 41 -54 76 -48 24 4
33 1 38 -13 17 -43 -56 -53 -113 -16 -13 9 -38 16 -55 17 -22 0 -31 5 -31 17
0 9 -16 27 -36 41 l-36 24 -42 -25 c-33 -19 -40 -28 -35 -45 5 -17 3 -19 -22
-14 -19 3 -40 -1 -59 -13 -47 -28 -90 -34 -109 -14 -23 22 -2 48 32 41 34 -6
79 22 74 47 -3 15 0 18 18 13 20 -5 90 28 90 43 0 3 -37 26 -83 52 -95 55
-218 98 -276 98 -23 0 -41 4 -41 10 0 15 158 0 230 -22z"/>
<path d="M1340 1120 c-46 -24 -102 -40 -154 -45 -66 -6 -86 -17 -81 -44 19
-102 79 -362 87 -384 10 -25 15 -28 47 -23 20 3 59 12 86 20 70 22 105 20 159
-9 l46 -24 46 24 c54 29 94 31 153 11 22 -8 58 -18 80 -21 49 -7 62 9 82 102
7 34 17 59 22 56 6 -3 7 -1 3 5 -6 10 5 75 41 238 7 30 -28 52 -72 47 -22 -2
-61 7 -108 25 -40 16 -97 29 -127 31 -49 2 -59 -1 -89 -28 l-33 -30 -24 29
c-22 25 -30 28 -87 28 -34 0 -69 -4 -77 -8z m156 -46 c12 -15 25 -41 29 -58
l7 -31 7 30 c13 53 30 74 71 86 35 11 49 8 137 -20 54 -17 120 -31 146 -31 41
0 48 -3 43 -17 -3 -10 -24 -101 -47 -203 -22 -102 -42 -186 -43 -187 -2 -2
-36 6 -77 17 -108 29 -170 27 -209 -7 -18 -15 -35 -22 -38 -17 -32 48 -115 56
-227 24 -38 -11 -73 -20 -76 -20 -4 0 -9 12 -11 28 -5 25 -45 209 -68 308 -5
23 -12 49 -16 58 -5 13 2 16 47 16 33 1 87 12 139 31 104 36 154 34 186 -7z"/>
<path d="M1313 923 c-26 -17 -31 -38 -8 -29 12 4 15 -6 15 -59 0 -58 2 -65 20
-65 18 0 20 7 20 85 0 91 -5 98 -47 68z"/>
<path d="M1412 924 c-31 -22 -30 -71 2 -84 13 -5 33 -6 45 -3 25 6 27 -9 5
-32 -12 -11 -25 -14 -46 -9 -23 5 -29 3 -26 -7 11 -34 102 -14 114 25 13 37 4
90 -18 109 -25 21 -47 22 -76 1z m56 -16 c18 -18 14 -45 -7 -51 -20 -5 -41 9
-41 28 0 12 20 35 30 35 3 0 11 -5 18 -12z"/>
<path d="M1540 889 c0 -45 2 -50 18 -44 19 7 22 8 40 6 17 -1 15 -36 -4 -52
-12 -10 -20 -10 -35 -1 -24 15 -29 15 -29 -2 0 -26 64 -36 92 -13 44 34 15
106 -38 93 -19 -5 -24 -3 -24 14 0 17 7 20 40 20 29 0 40 4 40 15 0 11 -12 15
-50 15 l-50 0 0 -51z"/>
<path d="M1650 925 c0 -11 12 -15 46 -15 l46 0 -36 -65 c-20 -36 -36 -68 -36
-70 0 -3 8 -5 18 -5 13 0 27 21 50 73 18 39 32 78 32 85 0 8 -19 12 -60 12
-47 0 -60 -3 -60 -15z"/>
</g>
</svg>
