<?xml version="1.0" standalone="no"?>
<!DOCTYPE svg PUBLIC "-//W3C//DTD SVG 20010904//EN"
 "http://www.w3.org/TR/2001/REC-SVG-20010904/DTD/svg10.dtd">
<svg version="1.0" xmlns="http://www.w3.org/2000/svg"
 width="1200.000000pt" height="461.000000pt" viewBox="0 0 1200.000000 461.000000"
 preserveAspectRatio="xMidYMid meet">

<g transform="translate(0.000000,461.000000) scale(0.100000,-0.100000)"
fill="#000000" stroke="none">
<path d="M10150 4163 c-276 -129 -665 -264 -1017 -353 l-43 -11 0 -1037 c0
-645 4 -1071 10 -1127 37 -320 199 -605 453 -796 103 -78 276 -162 402 -196
92 -25 115 -27 290 -27 176 0 197 2 290 28 401 110 712 421 823 823 l27 98 0
1119 0 1119 -148 38 c-272 71 -653 207 -886 315 -52 24 -101 44 -110 43 -9 0
-50 -16 -91 -36z m120 -382 l21 -69 32 9 c18 5 61 9 97 9 l65 -1 -45 -22 c-25
-12 -56 -30 -70 -40 -24 -17 -23 -17 60 -17 94 0 201 -25 278 -64 l47 -24 -94
6 c-95 5 -231 -12 -231 -29 0 -5 6 -9 14 -9 7 0 45 -16 83 -35 78 -39 176
-133 212 -204 24 -46 21 -46 -48 7 -57 43 -141 85 -210 106 -80 24 -85 21 -52
-25 32 -44 66 -137 76 -209 l6 -45 -32 50 c-48 76 -98 134 -143 167 l-41 30
-5 -79 c-3 -43 -3 -188 0 -323 l5 -245 23 2 c26 3 28 -4 5 -29 -15 -17 -14
-18 19 -18 57 0 51 -11 -25 -47 l-72 -34 -85 40 -85 40 49 0 c47 1 48 2 33 19
-23 26 -21 33 6 26 23 -5 24 -3 30 72 11 122 8 574 -3 574 -21 0 -137 -122
-172 -181 -30 -51 -38 -58 -38 -38 0 67 50 199 94 248 l21 24 -45 -7 c-56 -8
-209 -82 -272 -131 -27 -20 -48 -32 -48 -27 0 16 60 102 99 141 52 52 105 87
177 116 l59 24 -30 12 c-19 9 -78 13 -162 14 -72 0 -129 3 -127 7 2 3 43 21
92 39 77 29 99 32 194 33 122 1 125 9 23 58 l-60 29 85 -4 c47 -2 92 -7 101
-11 12 -5 18 5 28 46 14 53 28 88 36 88 2 0 14 -31 25 -69z m-445 -1156 c123
-26 262 -84 365 -154 25 -17 49 -31 53 -31 5 0 29 14 53 31 66 45 217 114 304
139 53 15 112 23 200 26 l125 4 -80 -15 c-102 -19 -192 -48 -280 -92 -81 -41
-232 -130 -240 -142 -2 -5 19 -25 48 -45 44 -31 58 -35 86 -30 33 7 34 6 27
-19 -5 -22 -1 -29 32 -49 24 -15 52 -23 81 -23 33 0 47 -5 58 -22 13 -20 12
-24 -7 -43 -29 -29 -83 -21 -167 25 -35 19 -65 30 -68 25 -4 -6 -18 -10 -31
-10 -23 0 -25 3 -20 28 6 24 1 31 -54 66 -33 21 -67 36 -75 32 -8 -3 -40 -21
-70 -41 -49 -31 -54 -37 -45 -55 9 -16 7 -22 -6 -27 -9 -3 -24 -2 -33 4 -12 8
-32 2 -81 -24 -86 -44 -128 -51 -160 -25 -22 18 -23 22 -12 47 12 26 16 27 58
21 37 -5 51 -2 83 19 32 21 37 30 33 52 -5 25 -3 26 27 20 26 -5 42 0 86 30
30 20 55 37 55 38 0 6 -117 79 -191 119 -117 63 -208 95 -324 116 l-100 18 98
1 c54 1 131 -6 172 -14z m335 -795 c12 -7 36 -43 54 -81 l33 -70 11 38 c43
140 133 164 328 89 96 -37 196 -59 247 -54 29 3 32 0 29 -21 -6 -41 -130 -603
-135 -607 -2 -2 -48 8 -103 22 -213 56 -258 53 -356 -19 l-28 -21 -23 22 c-63
60 -170 70 -312 29 -49 -14 -103 -27 -120 -29 l-30 -3 -62 285 c-34 157 -64
299 -67 315 l-6 30 73 2 c70 1 110 12 262 68 75 27 159 30 205 5z"/>
<path d="M10083 1579 c-34 -10 -63 -51 -63 -89 0 -11 12 -33 26 -47 22 -22 32
-25 70 -20 37 4 44 2 44 -13 0 -33 -36 -53 -80 -46 -39 6 -41 5 -38 -16 2 -19
10 -24 40 -26 81 -7 138 50 138 138 0 56 -24 99 -65 116 -19 8 -36 14 -37 13
-2 0 -18 -5 -35 -10z m65 -42 c6 -7 12 -26 14 -42 3 -29 1 -30 -37 -30 -36 0
-40 3 -43 28 -6 47 39 77 66 44z"/>
<path d="M9908 1562 c-33 -20 -39 -57 -8 -47 18 6 19 0 22 -92 3 -97 3 -98 28
-98 l25 0 3 128 c3 126 2 127 -20 127 -13 0 -35 -8 -50 -18z"/>
<path d="M10250 1510 c0 -55 3 -72 16 -77 8 -3 20 -1 27 6 18 18 55 13 67 -10
9 -16 8 -26 -5 -46 -17 -25 -42 -28 -87 -8 -15 6 -18 2 -18 -18 0 -22 6 -27
34 -33 106 -19 178 75 110 143 -22 22 -31 24 -65 19 -38 -6 -39 -6 -39 24 l0
30 60 0 c53 0 60 2 60 20 0 18 -7 20 -80 20 l-80 0 0 -70z"/>
<path d="M10430 1560 c0 -18 7 -20 65 -20 36 0 65 -4 65 -9 0 -4 -23 -52 -51
-105 -44 -84 -48 -97 -33 -103 29 -11 44 9 90 115 62 146 63 142 -46 142 -83
0 -90 -1 -90 -20z"/>
<path d="M1800 3980 c-42 -42 -10 -110 50 -110 34 0 80 38 80 65 0 9 -11 27
-25 40 -30 31 -77 33 -105 5z"/>
<path d="M2010 3980 c-27 -27 -26 -75 2 -94 51 -36 118 -8 118 49 0 59 -77 88
-120 45z"/>
<path d="M5990 3885 c0 -30 3 -35 23 -35 46 0 47 -5 47 -347 l0 -323 1210 0
1210 0 0 45 c0 43 -1 45 -29 45 -16 0 -33 6 -38 13 -6 6 -21 59 -33 117 -28
125 -54 181 -110 237 -52 53 -109 80 -188 91 -78 11 -217 0 -299 -23 l-63 -18
0 -43 c0 -42 1 -44 29 -44 16 0 49 9 73 20 25 11 77 24 116 30 130 18 226 -17
276 -103 23 -38 66 -208 66 -260 0 -16 -54 -17 -1037 -15 l-1038 3 -3 323 -2
322 -105 0 -105 0 0 -35z"/>
<path d="M1815 3731 c-51 -13 -111 -49 -139 -82 -39 -46 -57 -95 -63 -174 -11
-143 47 -247 158 -279 94 -28 200 -15 268 33 l30 21 3 -32 3 -33 745 -3 c658
-2 751 0 800 14 30 9 60 20 66 25 7 6 29 1 60 -13 l49 -23 670 0 670 0 61 28
61 29 50 -25 c131 -67 314 -54 410 28 56 48 84 117 84 210 0 95 -27 161 -88
215 -63 55 -125 73 -232 68 -98 -5 -151 -27 -196 -80 -42 -49 -54 -88 -63
-196 -10 -108 -25 -142 -76 -170 -28 -15 -91 -17 -669 -20 -400 -2 -638 1
-635 7 1 5 56 53 120 105 112 93 116 97 108 126 -15 52 -44 90 -95 125 -161
111 -415 104 -565 -15 -41 -32 -86 -111 -77 -134 3 -8 56 -56 116 -107 61 -51
111 -96 111 -101 0 -4 -306 -8 -680 -8 l-680 0 0 230 0 230 -43 0 c-44 0 -77
-21 -77 -49 0 -8 -9 -6 -27 6 -16 11 -41 25 -57 32 -37 15 -142 23 -181 12z
m3775 -84 c59 -39 75 -79 75 -187 0 -114 -17 -156 -74 -188 -71 -40 -225 -23
-268 29 -9 12 -9 24 2 57 8 23 18 74 21 114 12 140 59 198 160 198 36 0 61 -6
84 -23z m-3562 -12 l42 -17 -2 -157 -3 -156 -55 -28 c-46 -24 -64 -28 -113
-25 -105 7 -152 69 -151 198 0 77 21 139 58 169 51 42 142 48 224 16z m1816
-36 c51 -18 111 -71 104 -89 -2 -4 -57 -53 -122 -108 -102 -87 -121 -99 -136
-89 -44 32 -230 192 -230 199 0 4 12 22 28 39 59 67 241 91 356 48z"/>
<path d="M8083 3090 c-43 -18 -55 -68 -23 -100 41 -41 130 -14 130 39 0 45
-61 80 -107 61z"/>
<path d="M5704 2779 c-54 -15 -78 -51 -82 -124 l-4 -65 -44 0 c-42 0 -44 -1
-44 -30 l0 -30 150 0 150 0 0 30 0 30 -70 0 -70 0 0 43 c0 61 19 83 80 91 47
6 50 8 50 36 0 29 -2 30 -42 29 -24 0 -57 -5 -74 -10z"/>
<path d="M5980 2745 c0 -28 4 -35 19 -35 11 0 27 -7 36 -16 14 -14 16 -47 13
-274 -2 -200 -6 -261 -17 -273 -12 -15 -49 -17 -345 -17 -204 0 -346 4 -369
11 -22 6 -55 25 -74 43 -29 27 -36 41 -40 82 -5 52 10 97 41 123 9 8 16 24 16
38 0 22 -3 24 -42 21 -59 -4 -80 -43 -86 -152 -4 -74 -1 -86 25 -135 22 -43
39 -60 83 -85 l55 -31 390 -3 c443 -3 442 -3 481 74 l20 41 20 -36 c10 -19 34
-46 53 -58 32 -21 44 -23 182 -23 81 0 160 5 176 11 40 15 71 47 79 82 l6 30
22 -39 c12 -21 37 -49 56 -62 33 -22 43 -24 145 -20 96 3 116 6 156 29 l47 26
63 -31 c60 -29 71 -31 174 -31 94 0 117 3 162 24 29 13 69 41 89 63 19 22 37
38 38 36 1 -1 8 -18 16 -36 7 -18 29 -44 49 -58 35 -23 41 -24 223 -24 l188 0
-2 363 -3 362 -102 3 -103 3 0 -35 c0 -30 3 -35 28 -38 l27 -3 3 -282 2 -283
-120 0 c-124 0 -171 11 -183 44 -3 8 -4 53 0 98 6 94 -4 144 -42 203 -56 85
-166 132 -288 122 -162 -14 -247 -110 -247 -281 -1 -84 -27 -139 -79 -165 -32
-17 -59 -21 -138 -21 -171 0 -173 4 -173 369 0 236 -2 270 -16 275 -9 3 -56 6
-105 6 l-89 0 0 -35 c0 -28 4 -35 19 -35 48 0 51 -15 51 -278 0 -179 -4 -254
-13 -272 -12 -25 -14 -25 -154 -28 l-142 -3 -33 30 -33 29 -6 294 c-3 161 -6
294 -7 296 -1 1 -47 2 -102 2 l-100 0 0 -35z m1463 -229 c79 -33 118 -134 99
-257 -16 -109 -55 -147 -162 -156 -65 -6 -147 16 -175 47 -14 16 -15 24 -6 52
6 18 17 79 25 135 16 114 34 150 88 176 41 20 88 21 131 3z"/>
<path d="M8260 2736 c0 -30 3 -35 28 -38 l27 -3 5 -330 5 -330 70 0 70 0 0
365 0 365 -102 3 -103 3 0 -35z"/>
<path d="M1710 2577 l-45 -12 -3 -62 -3 -63 32 0 c24 0 41 9 63 34 79 85 248
42 288 -73 7 -21 13 -86 13 -156 l0 -120 -232 -3 -233 -2 0 -45 0 -45 300 0
300 0 0 173 c0 160 -2 175 -24 222 -29 62 -76 107 -141 137 -40 18 -71 23
-160 25 -64 1 -129 -3 -155 -10z"/>
<path d="M3258 2552 c-115 -31 -213 -113 -232 -193 -5 -23 6 -36 114 -125 88
-72 116 -101 105 -106 -8 -5 -96 -7 -197 -6 l-183 3 -3 208 -2 209 -158 -4
c-134 -3 -164 -6 -203 -24 -65 -30 -123 -86 -153 -147 -35 -68 -36 -173 -3
-267 l23 -65 162 -3 c89 -1 162 -6 162 -11 0 -14 -61 -62 -97 -78 -27 -11 -33
-19 -33 -43 l0 -30 61 0 c59 0 61 1 115 52 31 29 63 65 72 80 l16 28 211 0
c209 0 306 12 342 42 10 8 27 4 66 -13 51 -23 59 -24 322 -24 250 0 273 1 310
20 26 13 46 33 59 58 l19 39 21 -39 c32 -58 94 -86 173 -79 81 7 118 27 144
78 l21 42 19 -36 c10 -20 33 -47 51 -60 30 -21 46 -23 166 -26 l132 -4 0 256
0 256 -105 0 -105 0 0 -35 c0 -32 3 -35 28 -35 49 0 52 -11 52 -187 l0 -163
-62 1 c-79 0 -125 16 -152 52 -18 24 -21 46 -24 162 l-4 135 -104 0 -104 0 0
-35 c0 -29 4 -35 21 -35 11 0 29 -5 40 -10 17 -10 19 -22 19 -124 0 -87 -3
-116 -15 -126 -22 -19 -86 -23 -129 -8 -60 20 -79 61 -84 175 l-4 93 -105 0
-104 0 3 -37 c3 -35 6 -38 38 -43 l35 -5 3 -80 c4 -118 10 -115 -247 -115
-113 0 -212 4 -219 9 -10 6 18 34 102 102 114 93 116 95 112 131 -8 71 -82
140 -194 180 -81 29 -226 34 -314 10z m282 -97 c45 -16 84 -46 101 -76 7 -14
-15 -37 -111 -118 -66 -56 -125 -101 -131 -101 -6 0 -64 45 -130 101 -131 111
-132 113 -66 163 72 55 231 70 337 31z m-820 -170 l0 -165 -114 0 -114 0 -13
33 c-8 17 -14 66 -14 108 0 64 4 81 25 112 35 52 90 77 168 77 l62 0 0 -165z"/>
<path d="M3441 1420 c-103 -25 -143 -139 -75 -219 17 -20 46 -36 92 -51 95
-30 110 -39 121 -71 21 -62 -20 -109 -95 -109 -63 0 -104 32 -104 81 0 16 -6
20 -27 17 -28 -3 -28 -4 -28 -73 0 -66 1 -70 24 -73 13 -2 27 1 31 8 5 8 14 8
34 0 15 -5 52 -10 82 -10 111 0 171 61 161 163 -6 67 -41 99 -139 128 -109 31
-142 76 -97 133 17 21 29 26 68 26 54 0 86 -19 95 -55 5 -18 13 -25 31 -25 24
0 25 2 25 65 l0 65 -42 -2 c-24 -1 -61 1 -83 4 -22 4 -55 3 -74 -2z"/>
<path d="M1590 1396 c0 -18 6 -25 23 -28 22 -3 22 -3 22 -198 0 -195 0 -195
-22 -198 -17 -3 -23 -10 -23 -28 0 -24 1 -24 95 -24 95 0 95 0 95 25 0 21 -5
25 -30 25 -30 0 -30 0 -30 58 0 53 3 61 34 91 19 18 38 31 43 28 19 -12 121
-173 124 -197 4 -23 8 -25 67 -28 60 -3 62 -2 62 21 0 16 -7 26 -19 30 -10 2
-55 58 -99 123 l-81 119 76 77 c42 42 86 78 97 80 13 2 22 12 24 26 3 21 1 22
-87 22 -86 0 -91 -1 -91 -21 0 -12 8 -23 20 -26 11 -3 20 -9 20 -14 0 -5 -43
-53 -95 -106 l-94 -98 -1 107 0 107 28 3 c19 2 28 9 30 26 3 21 1 22 -92 22
-95 0 -96 0 -96 -24z"/>
<path d="M2160 1406 c-6 -8 -10 -25 -8 -38 2 -19 9 -23 38 -23 29 0 36 4 38
23 4 28 -14 52 -38 52 -10 0 -23 -7 -30 -14z"/>
<path d="M4780 1395 c0 -20 5 -25 25 -25 24 0 25 -3 25 -54 l0 -54 -37 19
c-82 42 -176 10 -221 -76 -23 -45 -21 -163 4 -206 46 -79 145 -104 217 -55
l35 24 6 -24 c6 -22 12 -24 61 -24 52 0 55 1 55 25 0 18 -5 25 -20 25 -19 0
-20 8 -22 223 l-3 222 -62 3 c-62 3 -63 2 -63 -23z m32 -166 c15 -8 18 -24 18
-114 0 -100 -1 -104 -26 -124 -35 -28 -106 -29 -133 -2 -41 41 -50 139 -19
207 22 48 101 64 160 33z"/>
<path d="M5104 1405 c-8 -20 4 -35 26 -35 26 0 29 -18 32 -200 3 -142 5 -158
25 -186 33 -46 82 -65 163 -65 83 0 136 23 165 73 17 28 21 56 25 203 5 167 5
170 28 173 16 3 22 10 22 28 0 24 -2 24 -85 24 -84 0 -85 0 -85 -25 0 -21 5
-25 31 -25 l31 0 -4 -170 c-3 -168 -3 -170 -29 -196 -52 -51 -176 -38 -199 21
-6 15 -10 98 -10 186 l0 159 30 0 c25 0 30 4 30 25 0 25 0 25 -95 25 -74 0
-97 -3 -101 -15z"/>
<path d="M6117 1402 c-10 -10 -17 -23 -17 -29 0 -13 33 -43 48 -43 15 0 42 29
42 45 0 17 -27 45 -44 45 -7 0 -20 -8 -29 -18z"/>
<path d="M7706 1398 c-27 -38 12 -81 53 -58 27 14 28 56 2 70 -28 15 -38 13
-55 -12z"/>
<path d="M7880 1340 c0 -47 -2 -50 -26 -50 -21 0 -25 -4 -22 -22 2 -15 11 -24
26 -26 22 -3 22 -6 22 -137 0 -124 2 -136 23 -160 18 -22 31 -26 74 -27 28 0
57 3 62 7 23 14 9 32 -31 41 l-43 9 -3 132 -3 132 38 3 c31 2 39 7 41 26 3 20
-1 22 -37 22 l-41 0 0 50 0 50 -40 0 -40 0 0 -50z"/>
<path d="M2107 1294 c-15 -16 -6 -43 16 -46 21 -3 22 -6 25 -140 2 -133 2
-138 -18 -138 -15 0 -20 -7 -20 -25 0 -25 1 -25 85 -25 83 0 85 0 85 24 0 18
-6 25 -22 28 -23 3 -23 6 -28 163 l-5 160 -55 3 c-31 2 -59 0 -63 -4z"/>
<path d="M2327 1293 c-15 -15 -6 -42 16 -45 21 -3 22 -6 25 -140 2 -133 2
-138 -18 -138 -15 0 -20 -7 -20 -25 0 -25 1 -25 85 -25 84 0 85 0 85 25 0 20
-5 25 -25 25 l-25 0 0 119 0 119 40 16 c51 20 94 20 114 0 13 -12 16 -40 16
-135 l0 -119 -25 0 c-20 0 -25 -5 -25 -25 0 -26 0 -26 82 -23 71 3 83 6 86 21
2 12 -4 20 -16 24 -18 4 -20 15 -24 145 l-3 140 -30 25 c-25 22 -35 25 -82 20
-30 -3 -70 -15 -89 -26 -43 -26 -44 -26 -44 -2 0 10 -7 22 -16 25 -21 8 -99 8
-107 -1z"/>
<path d="M2865 1281 c-63 -28 -87 -112 -46 -162 18 -22 18 -23 -2 -57 -19 -32
-19 -37 -6 -61 14 -25 14 -27 -13 -53 -33 -30 -37 -75 -10 -106 53 -60 230
-56 294 8 43 43 38 135 -9 155 -10 5 -61 11 -113 14 -91 6 -95 7 -95 29 0 22
4 23 78 25 76 2 80 3 109 36 28 31 30 38 25 88 -5 48 -4 53 14 53 14 0 19 7
19 25 l0 25 -102 0 c-78 0 -113 -5 -143 -19z m127 -48 c24 -22 24 -77 -2 -103
-44 -44 -120 -11 -120 52 0 17 7 40 17 50 20 23 80 24 105 1z m38 -298 c18
-21 5 -60 -25 -73 -31 -15 -104 -16 -139 -2 -26 10 -34 38 -20 74 9 22 166 23
184 1z"/>
<path d="M3785 1286 c-32 -9 -41 -17 -43 -39 -4 -35 20 -45 56 -21 32 21 112
25 135 5 11 -8 17 -29 17 -55 l0 -41 -57 4 c-72 4 -126 -12 -152 -46 -38 -47
-22 -132 30 -159 40 -20 108 -18 148 7 l33 20 15 -21 c12 -17 23 -20 56 -18
35 2 43 7 45 26 3 17 -2 22 -17 22 -20 0 -21 5 -21 123 0 77 -5 131 -13 147
-27 54 -135 76 -232 46z m143 -192 c18 -5 22 -13 22 -49 0 -54 -30 -78 -93
-73 -34 2 -44 8 -55 30 -31 65 38 115 126 92z"/>
<path d="M4100 1277 c0 -16 7 -26 19 -30 17 -4 19 -17 22 -142 l4 -137 29 -25
c26 -22 37 -25 88 -21 39 3 68 11 88 26 36 27 38 27 42 0 3 -20 10 -23 61 -26
55 -3 57 -2 57 22 0 18 -6 25 -22 28 -23 3 -23 6 -26 166 l-2 163 -63 -3 c-55
-3 -62 -5 -65 -25 -3 -17 2 -22 25 -25 l28 -3 3 -117 3 -117 -29 -15 c-46 -24
-95 -29 -117 -12 -18 13 -21 29 -25 163 l-5 148 -57 3 c-56 3 -58 2 -58 -21z"/>
<path d="M5830 1288 c-19 -5 -46 -18 -61 -29 l-28 -19 -3 22 c-3 21 -9 23 -66
26 -61 3 -63 2 -60 -20 2 -15 11 -24 26 -26 22 -3 22 -6 22 -137 0 -125 -1
-134 -20 -140 -11 -3 -20 -15 -20 -26 0 -17 8 -19 85 -19 77 0 85 2 85 19 0
13 -8 21 -22 23 -22 3 -23 6 -23 123 0 118 0 120 25 132 14 6 41 14 62 18 29
6 40 3 57 -14 20 -20 21 -31 19 -139 l-3 -117 -28 -3 c-20 -3 -27 -8 -25 -20
3 -14 18 -18 86 -20 73 -3 82 -1 82 15 0 10 -9 24 -20 31 -18 11 -20 23 -20
143 0 72 -4 139 -10 149 -10 18 -60 41 -89 39 -9 0 -32 -5 -51 -11z"/>
<path d="M6771 1290 c-77 -19 -121 -78 -128 -173 -4 -51 0 -70 19 -106 35 -68
66 -85 157 -89 102 -5 151 14 151 57 0 24 -5 31 -19 31 -10 0 -24 -7 -31 -15
-20 -24 -79 -36 -122 -24 -42 11 -64 38 -74 87 l-6 32 130 0 c72 0 133 4 136
9 11 17 -7 103 -28 134 -35 52 -112 76 -185 57z m103 -62 c15 -13 29 -38 32
-55 l7 -33 -98 0 -97 0 6 28 c9 38 60 82 96 82 16 0 40 -10 54 -22z"/>
<path d="M7420 1289 c-50 -14 -80 -51 -80 -100 0 -70 31 -99 119 -113 60 -9
81 -22 81 -51 0 -31 -25 -55 -58 -56 -55 -2 -77 3 -94 22 -9 10 -26 19 -37 19
-18 0 -21 -6 -21 -39 0 -35 3 -39 31 -45 17 -3 60 -6 96 -6 104 0 153 38 153
118 0 59 -30 86 -116 102 -82 16 -109 40 -86 77 12 19 61 34 90 27 15 -4 37
-16 49 -27 12 -11 29 -17 37 -14 21 8 22 73 2 80 -31 12 -133 16 -166 6z"/>
<path d="M6062 1268 c2 -15 11 -24 26 -26 22 -3 22 -6 22 -138 l0 -134 -25 -6
c-16 -4 -25 -13 -25 -25 0 -17 8 -19 85 -19 77 0 85 2 85 19 0 11 -9 23 -20
26 -19 6 -20 15 -20 150 0 79 -3 150 -6 159 -5 12 -21 16 -66 16 -56 0 -59 -1
-56 -22z"/>
<path d="M6240 1270 c0 -10 8 -24 19 -29 11 -7 43 -70 81 -166 l63 -156 35 3
35 3 65 157 c46 113 69 158 83 161 11 3 19 14 19 26 0 19 -6 21 -75 21 -73 0
-75 -1 -75 -25 0 -18 5 -25 20 -25 11 0 20 -6 20 -13 0 -12 -76 -216 -83 -224
-5 -4 -87 211 -87 227 0 6 9 10 20 10 15 0 20 7 20 25 0 25 -1 25 -80 25 -73
0 -80 -2 -80 -20z"/>
<path d="M7042 1268 c2 -15 11 -24 26 -26 22 -3 22 -6 22 -138 l0 -134 -25 -6
c-16 -4 -25 -13 -25 -25 0 -18 7 -20 92 -17 79 3 93 6 96 21 3 13 -3 17 -27
17 l-31 0 0 121 0 120 35 15 c19 7 48 14 65 14 27 0 30 3 30 30 0 27 -3 30
-34 30 -22 0 -45 -9 -64 -25 l-30 -25 -6 25 c-6 23 -11 25 -67 25 -57 0 -60
-1 -57 -22z"/>
<path d="M7652 1268 c2 -15 11 -24 26 -26 22 -3 22 -6 22 -137 0 -125 -1 -134
-20 -140 -11 -3 -20 -15 -20 -26 0 -17 8 -19 85 -19 77 0 85 2 85 19 0 12 -9
21 -25 25 l-24 6 -3 158 -3 157 -63 3 c-61 3 -63 2 -60 -20z"/>
<path d="M8080 1271 c0 -10 9 -25 21 -32 12 -8 47 -76 85 -163 l64 -150 -23
-24 c-12 -13 -34 -31 -49 -40 -39 -23 -39 -62 0 -62 63 0 93 42 188 259 49
114 78 169 93 176 12 6 21 19 21 32 0 22 -4 23 -75 23 -69 0 -75 -2 -75 -21 0
-12 8 -23 20 -26 27 -7 25 -17 -11 -104 -17 -41 -35 -85 -41 -99 -9 -23 -13
-16 -54 80 -24 57 -44 108 -44 112 0 3 10 8 23 10 14 2 23 11 25 26 3 21 1 22
-82 22 -77 0 -86 -2 -86 -19z"/>
</g>
</svg>
