<svg width="62" height="62" viewBox="0 0 62 62" fill="none" xmlns="http://www.w3.org/2000/svg">
<path d="M55.8 0H6.2C2.79 0 0 2.79 0 6.2V55.8C0 59.21 2.79 62 6.2 62H55.8C59.21 62 62 59.21 62 55.8V6.2C62 2.79 59.21 0 55.8 0ZM18.6 52.7H9.3V24.8H18.6V52.7ZM13.95 19.53C10.85 19.53 8.37 17.05 8.37 13.95C8.37 10.85 10.85 8.37 13.95 8.37C17.05 8.37 19.53 10.85 19.53 13.95C19.53 17.05 17.05 19.53 13.95 19.53ZM52.7 52.7H43.4V36.27C43.4 33.7901 41.23 31.62 38.75 31.62C36.27 31.62 34.1 33.7901 34.1 36.27V52.7H24.8V24.8H34.1V28.52C35.65 26.04 39.06 24.18 41.85 24.18C47.74 24.18 52.7 29.14 52.7 35.03V52.7Z" fill="#E9EFFF"/>
</svg>
