<svg width="50" height="46" viewBox="0 0 50 46" fill="none" xmlns="http://www.w3.org/2000/svg">
<path d="M35.9348 45.7993C34.3208 45.7993 32.7205 45.538 31.1556 45.0172C24.2616 42.7232 17.8624 38.9869 12.6497 34.2123C7.43705 29.4376 3.35812 23.576 0.853829 17.2612C0.0490764 15.2318 -0.188414 13.1369 0.148193 11.0345C0.463512 9.06521 1.29629 7.15343 2.55659 5.5058C3.82246 3.85092 5.51008 2.47449 7.43696 1.52536C9.49175 0.513253 11.7345 0 14.1032 0C14.8399 0 15.4766 0.471481 15.631 1.13125L18.0834 11.6145C18.1944 12.0892 18.0352 12.5831 17.6605 12.9264L13.4699 16.7648C17.4231 23.9641 23.8376 29.8398 31.6973 33.4608L35.8877 29.6224C36.2625 29.2791 36.8019 29.1334 37.32 29.235L48.7648 31.4814C49.4851 31.6228 49.9998 32.206 49.9998 32.8808C49.9998 35.0504 49.4394 37.1049 48.3344 38.987C47.2982 40.752 45.7955 42.2979 43.9889 43.4574C42.1902 44.6118 40.1031 45.3746 37.9531 45.6634C37.2794 45.7541 36.6058 45.7992 35.9348 45.7993ZM12.8548 2.92495C9.73042 3.24088 6.95729 4.74093 5.11576 7.14843C3.04495 9.85557 2.56206 13.1853 3.79091 16.2839C8.60556 28.4244 18.9685 37.9167 32.2225 42.3269C35.6052 43.4525 39.2403 43.0102 42.1959 41.1133C44.8242 39.4265 46.4618 36.8863 46.8067 34.0245L37.4965 32.197L33.1201 36.2057C32.6544 36.6323 31.9468 36.7456 31.3509 36.4891C22.0554 32.489 14.5311 25.5968 10.1641 17.0823C9.88412 16.5364 10.0077 15.8882 10.4735 15.4617L14.8498 11.453L12.8548 2.92495Z" fill="#E9EFFF"/>
</svg>
