<svg width="62" height="62" viewBox="0 0 62 62" fill="none" xmlns="http://www.w3.org/2000/svg">
<path d="M58.589 3.4105C56.3161 1.13697 53.5775 0 50.3756 0H11.6253C8.42333 0 5.68481 1.13697 3.41086 3.4105C1.13734 5.68444 0.000366211 8.42282 0.000366211 11.6249V50.3748C0.000366211 53.5766 1.13734 56.3152 3.41086 58.5892C5.68481 60.8631 8.42333 62.0001 11.6253 62.0001H50.3752C53.5771 62.0001 56.3156 60.8631 58.5886 58.5892C60.8625 56.3152 61.9995 53.5767 61.9995 50.3748V11.6249C61.9994 8.42282 60.8624 5.68402 58.589 3.4105ZM47.4287 23.8557C47.4557 24.0978 47.4694 24.4605 47.4694 24.9457C47.4694 27.2062 47.1394 29.4734 46.4804 31.7466C45.8215 34.021 44.8122 36.2006 43.4526 38.286C42.0946 40.3712 40.4732 42.215 38.5898 43.816C36.7059 45.4164 34.4458 46.6952 31.8081 47.6498C29.1716 48.6058 26.3456 49.0838 23.3319 49.0838C18.65 49.0838 14.3176 47.8182 10.3348 45.2898C10.9806 45.3701 11.6537 45.4106 12.353 45.4106C16.255 45.4106 19.7668 44.1997 22.8884 41.7772C21.0588 41.751 19.4238 41.1864 17.9843 40.0819C16.5443 38.9787 15.5422 37.5796 14.977 35.8842C15.6764 35.9917 16.201 36.045 16.5508 36.045C17.1428 36.045 17.8292 35.9375 18.6093 35.7228C16.645 35.3454 14.9903 34.3709 13.6448 32.7966C12.299 31.2222 11.6263 29.4261 11.6263 27.4081V27.3274C13.0521 27.9996 14.3976 28.3494 15.6625 28.3767C13.2137 26.7348 11.9893 24.3806 11.9893 21.313C11.9893 19.8058 12.3793 18.3797 13.1597 17.0342C15.2853 19.6447 17.8692 21.7299 20.9095 23.2906C23.9502 24.8511 27.2066 25.7261 30.6777 25.9143C30.5434 25.4031 30.476 24.757 30.476 23.9768C30.476 21.6353 31.3035 19.6376 32.9586 17.9825C34.6132 16.3275 36.6114 15.4997 38.9523 15.4997C41.4285 15.4997 43.4876 16.388 45.1288 18.1641C46.9857 17.8144 48.7894 17.1278 50.538 16.1057C49.8655 18.1772 48.6134 19.7516 46.7844 20.828C48.533 20.5854 50.1605 20.1282 51.6672 19.4555C50.5372 21.1776 49.1239 22.6442 47.4287 23.8557Z" fill="#E9EFFF"/>
</svg>
