<?xml version="1.0" standalone="no"?>
<!DOCTYPE svg PUBLIC "-//W3C//DTD SVG 20010904//EN"
 "http://www.w3.org/TR/2001/REC-SVG-20010904/DTD/svg10.dtd">
<svg version="1.0" xmlns="http://www.w3.org/2000/svg"
 width="300.000000pt" height="300.000000pt" viewBox="0 0 300.000000 300.000000"
 preserveAspectRatio="xMidYMid meet">
<metadata>
Created by potrace 1.10, written by Peter Selinger 2001-2011
</metadata>
<g transform="translate(0.000000,300.000000) scale(0.100000,-0.100000)"
fill="#7bb1dd" stroke="none">
<path d="M1220 2261 c-8 -5 -18 -7 -24 -4 -5 3 -6 1 -2 -5 8 -13 -37 -37 -76
-41 -6 0 -8 -4 -5 -8 4 -3 -11 -16 -32 -27 -22 -12 -79 -44 -128 -73 -135 -79
-146 -84 -155 -70 -6 9 -8 8 -8 -3 0 -9 -14 -27 -30 -42 l-30 -26 1 -391 c1
-215 5 -394 10 -397 5 -3 9 -18 9 -35 0 -16 4 -29 9 -29 5 0 12 -14 16 -31 9
-40 79 -143 128 -189 55 -50 139 -104 186 -120 22 -7 39 -16 37 -19 -5 -8 18
-10 192 -15 105 -4 141 -2 136 6 -5 8 -2 9 10 5 9 -4 15 -3 12 2 -3 5 9 12 28
15 19 4 39 13 46 21 7 8 18 15 24 15 6 0 29 12 50 26 21 14 46 24 56 21 13 -3
17 0 13 9 -5 13 14 19 40 15 5 -1 6 3 2 9 -6 9 8 14 28 11 5 -1 6 2 4 7 -3 4
8 15 24 25 18 10 28 12 24 4 -4 -6 0 -4 8 5 8 10 17 15 20 11 4 -3 7 -2 7 4 0
11 59 40 74 35 5 -2 6 4 2 13 -3 10 -1 15 7 13 6 -2 28 8 47 22 19 14 47 32
62 40 37 21 109 89 133 125 21 32 54 101 54 112 -1 3 3 9 8 12 26 17 32 111
32 493 1 303 -2 397 -11 395 -7 -1 -12 5 -13 13 0 8 -7 15 -15 16 -34 2 -41 4
-36 12 2 4 -3 8 -12 9 -9 1 -28 4 -41 9 -17 5 -22 4 -17 -4 5 -8 0 -12 -13
-12 -12 0 -21 -4 -21 -9 0 -5 -10 -13 -22 -17 -13 -4 -25 -9 -28 -13 -5 -6
-41 -26 -115 -65 -22 -12 -41 -24 -43 -28 -2 -5 -8 -8 -14 -8 -5 0 -22 -9 -38
-20 -15 -11 -30 -17 -34 -13 -3 3 -6 1 -6 -6 0 -8 -6 -11 -16 -7 -8 3 -12 2
-9 -4 3 -6 0 -10 -8 -10 -17 0 -38 -38 -37 -70 0 -14 0 -47 0 -75 0 -27 2 -62
6 -77 3 -14 0 -29 -5 -33 -6 -3 -11 -11 -11 -16 0 -6 5 -7 10 -4 6 4 10 -5 10
-20 0 -18 -4 -24 -12 -19 -9 5 -9 2 1 -9 10 -12 12 -33 7 -75 -3 -31 -7 -137
-7 -235 -1 -97 -5 -194 -10 -215 -6 -20 -11 -42 -12 -49 -5 -22 -16 -26 -34
-12 -14 12 -16 12 -8 0 6 -11 4 -13 -11 -7 -10 5 -31 13 -46 18 -16 5 -28 14
-28 20 0 5 -4 6 -10 3 -5 -3 -10 -1 -10 4 0 6 -6 11 -14 11 -22 0 -104 97
-133 158 l-28 57 -3 395 c-3 344 -5 397 -19 412 -9 10 -21 18 -28 18 -6 0 -20
8 -31 18 -22 20 -53 26 -74 13z m81 -38 l48 -28 3 -395 3 -395 32 -67 c17 -37
50 -87 72 -111 45 -49 135 -101 198 -115 l42 -10 18 42 c16 37 18 81 21 458
l3 418 67 37 c37 20 129 72 205 115 l138 78 39 -25 c22 -14 44 -25 50 -25 7 0
10 -129 10 -383 0 -421 -3 -449 -61 -558 -43 -81 -124 -154 -257 -232 -63 -37
-115 -67 -117 -67 -1 0 -64 -36 -140 -80 -162 -95 -231 -121 -345 -127 -213
-12 -408 96 -512 284 -63 114 -68 154 -68 565 l0 364 113 64 c61 35 173 99
247 142 74 43 137 78 139 78 1 0 25 -12 52 -27z"/>
<path d="M1046 2017 l-190 -112 -1 -305 c-1 -168 2 -334 7 -370 31 -236 269
-411 505 -372 80 13 171 57 233 110 l44 39 -62 21 c-147 49 -266 171 -312 320
-18 57 -20 95 -20 422 -1 198 -4 360 -8 359 -4 0 -92 -51 -196 -112z m179 65
c-12 -8 -13 -27 -2 -38 4 -4 6 -116 5 -248 l-2 -241 -6 245 -6 245 -2 -277
c-1 -164 2 -278 7 -280 5 -1 11 -31 13 -65 2 -33 6 -59 9 -57 6 4 18 -38 22
-78 1 -10 5 -18 9 -18 4 0 12 -10 19 -21 9 -17 8 -24 -2 -31 -11 -8 -10 -9 3
-5 20 7 36 -11 33 -39 -1 -11 4 -21 11 -21 7 0 10 5 7 11 -3 6 4 1 16 -11 11
-12 21 -27 21 -33 0 -5 5 -10 11 -10 5 0 8 -4 4 -9 -3 -5 0 -13 6 -17 8 -4 9
-3 5 4 -13 22 15 12 38 -13 13 -14 27 -25 32 -25 14 0 130 -60 119 -61 -5 -1
-13 -1 -17 0 -5 0 -8 -5 -8 -13 0 -8 -11 -17 -25 -20 -14 -4 -23 -11 -20 -17
4 -5 3 -9 -2 -8 -4 1 -17 0 -28 -1 -13 -1 -15 -3 -6 -7 7 -3 -10 -14 -40 -25
-53 -19 -215 -32 -224 -18 -2 4 -17 7 -32 8 -34 1 -85 26 -75 37 4 5 -1 5 -10
2 -11 -4 -18 -2 -18 5 0 6 -3 9 -6 5 -12 -12 -158 129 -148 144 3 5 0 9 -6 9
-6 0 -8 5 -5 10 3 5 2 10 -3 10 -16 0 -41 84 -31 103 6 10 5 20 -3 29 -7 7
-14 27 -16 43 -2 23 -1 27 7 15 7 -9 11 -10 11 -3 0 6 -5 15 -10 18 -12 7 -9
551 3 575 4 8 19 20 32 27 19 8 24 8 19 0 -4 -7 4 -1 17 13 13 14 31 26 39 28
8 2 22 9 30 16 8 7 35 24 60 37 25 13 52 29 60 35 21 17 73 44 85 44 6 0 6 -3
0 -8z"/>
<path d="M1995 2045 l-140 -83 -5 -379 c-5 -311 -9 -386 -22 -425 -15 -46 -15
-48 3 -48 39 0 147 61 198 111 62 63 98 135 110 226 12 80 14 683 3 682 -4 0
-70 -38 -147 -84z m124 24 c-6 -12 -7 -19 -2 -16 9 5 8 -530 -1 -619 -3 -29
-9 -61 -15 -71 -5 -10 -15 -31 -22 -47 -14 -29 -73 -95 -118 -131 -17 -14 -22
-15 -17 -5 4 8 0 6 -8 -4 -9 -11 -16 -14 -16 -8 0 7 -5 12 -11 12 -6 0 -9 -7
-5 -15 3 -8 4 -15 3 -15 -1 0 -17 -4 -35 -9 -29 -9 -31 -8 -22 8 5 10 7 20 5
23 -3 2 0 19 5 38 5 18 10 189 10 379 1 197 5 353 10 361 5 8 10 11 10 6 0 -5
10 -1 23 10 12 11 42 30 67 43 25 13 53 31 63 39 9 8 17 12 17 8 0 -4 12 2 26
13 34 27 48 27 33 0z"/>
</g>
</svg>
